<mxfile host="Electron" agent="Mozilla/5.0 (X11; Linux x86_64) AppleWebKit/537.36 (KHTML, like Gecko) draw.io/24.7.17 Chrome/128.0.6613.36 Electron/32.0.1 Safari/537.36" version="24.7.17">
  <diagram name="Trang-1" id="Gn_CtETaS8U7IVM5VC_u">
    <mxGraphModel dx="1114" dy="651" grid="1" gridSize="10" guides="1" tooltips="1" connect="1" arrows="1" fold="1" page="1" pageScale="1" pageWidth="827" pageHeight="1169" math="0" shadow="0">
      <root>
        <mxCell id="0" />
        <mxCell id="1" parent="0" />
        <mxCell id="Xsf2buudfJOGDg2GuMTo-2" value="send file to /file" style="html=1;verticalAlign=bottom;endArrow=block;curved=0;rounded=0;entryX=0;entryY=0;entryDx=0;entryDy=5;" edge="1" target="Xsf2buudfJOGDg2GuMTo-1" parent="1" source="Xsf2buudfJOGDg2GuMTo-4">
          <mxGeometry relative="1" as="geometry">
            <mxPoint x="300" y="305" as="sourcePoint" />
          </mxGeometry>
        </mxCell>
        <mxCell id="Xsf2buudfJOGDg2GuMTo-3" value="return ok" style="html=1;verticalAlign=bottom;endArrow=open;dashed=1;endSize=8;curved=0;rounded=0;exitX=0;exitY=1;exitDx=0;exitDy=-5;" edge="1" source="Xsf2buudfJOGDg2GuMTo-1" parent="1" target="Xsf2buudfJOGDg2GuMTo-4">
          <mxGeometry relative="1" as="geometry">
            <mxPoint x="300" y="375" as="targetPoint" />
          </mxGeometry>
        </mxCell>
        <mxCell id="Xsf2buudfJOGDg2GuMTo-4" value="User" style="shape=umlLifeline;perimeter=lifelinePerimeter;whiteSpace=wrap;html=1;container=1;dropTarget=0;collapsible=0;recursiveResize=0;outlineConnect=0;portConstraint=eastwest;newEdgeStyle={&quot;edgeStyle&quot;:&quot;elbowEdgeStyle&quot;,&quot;elbow&quot;:&quot;vertical&quot;,&quot;curved&quot;:0,&quot;rounded&quot;:0};" vertex="1" parent="1">
          <mxGeometry x="150" y="80" width="100" height="360" as="geometry" />
        </mxCell>
        <mxCell id="Xsf2buudfJOGDg2GuMTo-5" value="Controller" style="shape=umlLifeline;perimeter=lifelinePerimeter;whiteSpace=wrap;html=1;container=1;dropTarget=0;collapsible=0;recursiveResize=0;outlineConnect=0;portConstraint=eastwest;newEdgeStyle={&quot;edgeStyle&quot;:&quot;elbowEdgeStyle&quot;,&quot;elbow&quot;:&quot;vertical&quot;,&quot;curved&quot;:0,&quot;rounded&quot;:0};" vertex="1" parent="1">
          <mxGeometry x="270" y="80" width="100" height="360" as="geometry" />
        </mxCell>
        <mxCell id="Xsf2buudfJOGDg2GuMTo-1" value="" style="html=1;points=[[0,0,0,0,5],[0,1,0,0,-5],[1,0,0,0,5],[1,1,0,0,-5]];perimeter=orthogonalPerimeter;outlineConnect=0;targetShapes=umlLifeline;portConstraint=eastwest;newEdgeStyle={&quot;curved&quot;:0,&quot;rounded&quot;:0};" vertex="1" parent="Xsf2buudfJOGDg2GuMTo-5">
          <mxGeometry x="45" y="90" width="10" height="250" as="geometry" />
        </mxCell>
        <mxCell id="Xsf2buudfJOGDg2GuMTo-7" value="Multipart file" style="html=1;verticalAlign=bottom;endArrow=block;curved=0;rounded=0;entryX=0;entryY=0;entryDx=0;entryDy=5;" edge="1" target="Xsf2buudfJOGDg2GuMTo-6" parent="1" source="Xsf2buudfJOGDg2GuMTo-5">
          <mxGeometry x="-0.0008" relative="1" as="geometry">
            <mxPoint x="560" y="305" as="sourcePoint" />
            <mxPoint as="offset" />
          </mxGeometry>
        </mxCell>
        <mxCell id="Xsf2buudfJOGDg2GuMTo-8" value="return file name" style="html=1;verticalAlign=bottom;endArrow=open;dashed=1;endSize=8;curved=0;rounded=0;exitX=0;exitY=1;exitDx=0;exitDy=-5;" edge="1" source="Xsf2buudfJOGDg2GuMTo-6" parent="1" target="Xsf2buudfJOGDg2GuMTo-5">
          <mxGeometry relative="1" as="geometry">
            <mxPoint x="550" y="375" as="targetPoint" />
          </mxGeometry>
        </mxCell>
        <mxCell id="Xsf2buudfJOGDg2GuMTo-9" value="Storage service" style="shape=umlLifeline;perimeter=lifelinePerimeter;whiteSpace=wrap;html=1;container=1;dropTarget=0;collapsible=0;recursiveResize=0;outlineConnect=0;portConstraint=eastwest;newEdgeStyle={&quot;edgeStyle&quot;:&quot;elbowEdgeStyle&quot;,&quot;elbow&quot;:&quot;vertical&quot;,&quot;curved&quot;:0,&quot;rounded&quot;:0};" vertex="1" parent="1">
          <mxGeometry x="400" y="80" width="100" height="360" as="geometry" />
        </mxCell>
        <mxCell id="Xsf2buudfJOGDg2GuMTo-6" value="" style="html=1;points=[[0,0,0,0,5],[0,1,0,0,-5],[1,0,0,0,5],[1,1,0,0,-5]];perimeter=orthogonalPerimeter;outlineConnect=0;targetShapes=umlLifeline;portConstraint=eastwest;newEdgeStyle={&quot;curved&quot;:0,&quot;rounded&quot;:0};" vertex="1" parent="Xsf2buudfJOGDg2GuMTo-9">
          <mxGeometry x="45" y="100" width="10" height="80" as="geometry" />
        </mxCell>
        <mxCell id="Xsf2buudfJOGDg2GuMTo-10" value="Contestant service" style="shape=umlLifeline;perimeter=lifelinePerimeter;whiteSpace=wrap;html=1;container=1;dropTarget=0;collapsible=0;recursiveResize=0;outlineConnect=0;portConstraint=eastwest;newEdgeStyle={&quot;edgeStyle&quot;:&quot;elbowEdgeStyle&quot;,&quot;elbow&quot;:&quot;vertical&quot;,&quot;curved&quot;:0,&quot;rounded&quot;:0};" vertex="1" parent="1">
          <mxGeometry x="520" y="80" width="100" height="360" as="geometry" />
        </mxCell>
        <mxCell id="Xsf2buudfJOGDg2GuMTo-28" value="" style="html=1;points=[[0,0,0,0,5],[0,1,0,0,-5],[1,0,0,0,5],[1,1,0,0,-5]];perimeter=orthogonalPerimeter;outlineConnect=0;targetShapes=umlLifeline;portConstraint=eastwest;newEdgeStyle={&quot;curved&quot;:0,&quot;rounded&quot;:0};" vertex="1" parent="Xsf2buudfJOGDg2GuMTo-10">
          <mxGeometry x="45" y="210" width="10" height="120" as="geometry" />
        </mxCell>
        <mxCell id="Xsf2buudfJOGDg2GuMTo-12" value="Save file to disk" style="text;html=1;align=center;verticalAlign=middle;whiteSpace=wrap;rounded=0;" vertex="1" parent="1">
          <mxGeometry x="450" y="200" width="60" height="30" as="geometry" />
        </mxCell>
        <mxCell id="Xsf2buudfJOGDg2GuMTo-14" value="File stream" style="html=1;verticalAlign=bottom;endArrow=block;curved=0;rounded=0;" edge="1" parent="1">
          <mxGeometry x="-0.002" relative="1" as="geometry">
            <mxPoint x="319.81034482758605" y="300" as="sourcePoint" />
            <mxPoint x="570" y="300" as="targetPoint" />
            <mxPoint as="offset" />
          </mxGeometry>
        </mxCell>
        <mxCell id="Xsf2buudfJOGDg2GuMTo-15" value="return ok" style="html=1;verticalAlign=bottom;endArrow=open;dashed=1;endSize=8;curved=0;rounded=0;" edge="1" parent="1">
          <mxGeometry relative="1" as="geometry">
            <mxPoint x="319.81034482758605" y="400" as="targetPoint" />
            <mxPoint x="569.5" y="400" as="sourcePoint" />
          </mxGeometry>
        </mxCell>
        <mxCell id="Xsf2buudfJOGDg2GuMTo-16" value="Contestant Repository" style="shape=umlLifeline;perimeter=lifelinePerimeter;whiteSpace=wrap;html=1;container=1;dropTarget=0;collapsible=0;recursiveResize=0;outlineConnect=0;portConstraint=eastwest;newEdgeStyle={&quot;edgeStyle&quot;:&quot;elbowEdgeStyle&quot;,&quot;elbow&quot;:&quot;vertical&quot;,&quot;curved&quot;:0,&quot;rounded&quot;:0};" vertex="1" parent="1">
          <mxGeometry x="650" y="80" width="100" height="360" as="geometry" />
        </mxCell>
        <mxCell id="Xsf2buudfJOGDg2GuMTo-25" value="Contestant data" style="html=1;verticalAlign=bottom;endArrow=block;curved=0;rounded=0;entryX=0;entryY=0;entryDx=0;entryDy=5;" edge="1" target="Xsf2buudfJOGDg2GuMTo-24" parent="Xsf2buudfJOGDg2GuMTo-16">
          <mxGeometry relative="1" as="geometry">
            <mxPoint x="-80.18965517241395" y="235" as="sourcePoint" />
          </mxGeometry>
        </mxCell>
        <mxCell id="Xsf2buudfJOGDg2GuMTo-24" value="" style="html=1;points=[[0,0,0,0,5],[0,1,0,0,-5],[1,0,0,0,5],[1,1,0,0,-5]];perimeter=orthogonalPerimeter;outlineConnect=0;targetShapes=umlLifeline;portConstraint=eastwest;newEdgeStyle={&quot;curved&quot;:0,&quot;rounded&quot;:0};" vertex="1" parent="Xsf2buudfJOGDg2GuMTo-16">
          <mxGeometry x="45" y="230" width="10" height="80" as="geometry" />
        </mxCell>
        <mxCell id="Xsf2buudfJOGDg2GuMTo-26" value="return ok" style="html=1;verticalAlign=bottom;endArrow=open;dashed=1;endSize=8;curved=0;rounded=0;exitX=0;exitY=1;exitDx=0;exitDy=-5;" edge="1" source="Xsf2buudfJOGDg2GuMTo-24" parent="Xsf2buudfJOGDg2GuMTo-16">
          <mxGeometry x="-0.0041" relative="1" as="geometry">
            <mxPoint x="-80.18965517241395" y="305" as="targetPoint" />
            <mxPoint as="offset" />
          </mxGeometry>
        </mxCell>
        <mxCell id="Xsf2buudfJOGDg2GuMTo-27" value="Save to MongoDB" style="text;html=1;align=center;verticalAlign=middle;whiteSpace=wrap;rounded=0;" vertex="1" parent="1">
          <mxGeometry x="710" y="320" width="60" height="30" as="geometry" />
        </mxCell>
        <mxCell id="Xsf2buudfJOGDg2GuMTo-29" value="Parse file" style="text;html=1;align=center;verticalAlign=middle;whiteSpace=wrap;rounded=0;" vertex="1" parent="1">
          <mxGeometry x="570" y="340" width="60" height="30" as="geometry" />
        </mxCell>
      </root>
    </mxGraphModel>
  </diagram>
</mxfile>
